<svg xmlns="http://www.w3.org/2000/svg" width="800" height="800" viewBox="0 0 512 512">
  <path fill="#166534" d="M368.7 96c-5.5-18.1-20.8-31.1-39.4-31.9-18.4 0-34.6 11.5-41 27.7-.4 1-1.1 3.2-2.5 4.6-1.8 1.8-3.4 2.2-6.1 2.2-3.2 0-5.2-.8-6.9-2.5-1.5-1.5-2.4-3.6-3-5.3-5.6-17.3-20.9-29.9-40.1-29.9-22.6 0-41 18.3-41 40.4 0 12.7 7.5 21.5 7.5 21.5-7.1 11.3-14.1 29.3-14.1 42 0 10 3 20 8.4 28.7 5.5 8.7 13.4 15.7 22.5 20 5.5 2.6 7.5 9.3 4.7 14.5-10.8 21-29 43.5-47.2 55.7-8-9.2-22.2-8.8-30.8 1-13.3 15.8 4.4 43 23.6 41.4 13.7-1 13.7 2.4 33.4-9.2 21.5-12.3 46.8-38.7 64.2-75.8 2.3-4.9 7.6-7.5 13.1-6.4 3.2.7 6.5 1 9.9 1 5 0 10-.7 14.6-2.1 5.1-1.5 10.7.5 13.6 5 13.7 21.5 38.3 42.4 61.5 42.4 22.6 0 41-18.3 41-40.4 0-13.5-10.4-24.5-10.4-24.5 12.7-26 8.8-53.3 1.8-69.5-.2-.4-.4-.9-.6-1.3 10.4-9.7 16.9-23.4 16.9-38.5 0-29.2-24.4-53.1-54.7-53.1-19.4 0-36.4 9.9-46 24.5z"/>
  <path fill="#15803d" d="M169.5 201.5c.5-2.2.8-4.4.8-6.7 0-12.7-7.1-30.7-14.1-42 0 0 7.5-8.8 7.5-21.5 0-22-18.3-40.3-41-40.3-19.1 0-34.5 12.6-40.1 29.9-.6 1.7-1.5 3.8-2.9 5.3-1.8 1.7-3.7 2.5-6.9 2.5-2.7 0-4.3-.4-6.1-2.2-1.4-1.5-2.1-3.6-2.5-4.6-6.3-16.2-22.5-27.7-41-27.7-18.5.8-33.9 13.8-39.4 31.9-9.6-14.7-26.5-24.6-45.9-24.6-30.3 0-54.7 23.9-54.7 53.1 0 15.1 6.5 28.8 16.9 38.5-.2.4-.4.9-.6 1.3-7 16.1-10.8 43.5 1.8 69.5 0 0-10.4 11-10.4 24.5 0 22 18.3 40.3 41 40.3 23.2 0 47.8-20.9 61.5-42.4 3-4.4 8.5-6.5 13.6-5 4.6 1.4 9.6 2.1 14.6 2.1 3.4 0 6.7-.3 9.9-1 5.5-1.1 10.8 1.4 13.1 6.4 17.4 37.1 42.8 63.5 64.2 75.8 19.7 11.6 19.7 8.3 33.4 9.2 19.2 1.6 36.9-25.6 23.6-41.4-8.5-9.8-22.7-10.2-30.8-1-18.2-12.2-36.4-34.7-47.2-55.7-2.8-5.2-.8-11.9 4.7-14.5 9.1-4.3 17-11.3 22.5-20 4-6.1 6.5-12.9 7.6-19.9z"/>
  <path fill="#166534" d="M279.5 303c-1.6 2.3-3.9 4-6.5 4.9-2.9 1-6.1 1.5-9.2 1.5-2.8 0-5.5-.4-8.1-.9-1.3-.3-2.5-.1-3.6.4 0-.7 0-1.5.1-2.2 5.5-1.1 10.8 1.4 13.1 6.4 17.4 37.1 42.8 63.5 64.2 75.8 16.1 9.5 18.4 9.7 30 9.7h.1c-10.3 3.8-28.5 8.9-55.5-3.9-21.5-10.2-44.2-33.2-60.9-62.7-11.7-20.6-24.2-34.4-32.7-41.6-2.8-2.4-3.1-6.6-.6-9.4 2.4-2.8 6.6-3.1 9.4-.6 9.9 8.3 24.3 24.2 37.7 48.2 16.2 29.1 39.1 49.4 56 56.8 21.9 9.5 36.9 6.9 47.8 2.4-3.7 17.4-19.6 30.5-38.8 30.5-11.5 0-22.2-4.1-30.5-10.9 2.7-.4 5.1-1.8 6.9-4.1 3.1-3.9 3.1-9 1.1-13.3z"/>
  <path fill="#1a543c" d="M282.5 305.5c-2.8-4.6-8.4-6.5-13.5-5-8.3 2.4-17.7 1.6-25.3-2.4-5.1-2.7-11.5-.6-14.1 4.6-2.6 5.1-.6 11.5 4.6 14.1 3.2 1.6 6.6 2.9 10.1 3.7-13.3 22.9-34.5 52.3-72 52.3-6 0-10.8 4.8-10.8 10.8s4.8 10.8 10.8 10.8c23.9 0 44.3-8.7 60.6-25.7 12.2 10.5 27.9 16.2 45.7 16.2 11.4 0 22.2-2.8 31.7-7.7.6 3.3 1 6.7 1 10.2 0 32-26.1 58.1-58.1 58.1-16.7 0-31.8-7.1-42.4-18.4.5 0 1.1.1 1.6.1 5.3 0 10.1-3.9 10.7-9.3.7-6-3.6-11.4-9.6-12.1-40.3-4.7-45.3-29.1-45.3-33.7 0-6-4.8-10.8-10.8-10.8s-10.8 4.8-10.8 10.8c0 10.7 5.2 45.2 57.3 54.6 14.7 19.1 37.5 30.8 62.6 30.8 43.2 0 79-33.8 81.4-76.5 18.5-18.8 28.6-43.6 28.6-69.9 0-25.5-9.5-49.6-26.8-68.3-.4-.4-.8-.8-1.3-1.2 18.1-19.4 28-44.5 28-70.7 0-57.2-46.5-103.8-103.8-103.8-29.1 0-55.4 11.9-74.3 31.2-7.3-16.9-20.6-30.5-37.3-38.2 7.1-10 18.8-16.6 32-16.6 18.1 0 33.5 12.4 37.9 28.7 1.1 3.9 3.2 9.2 8 13.3 5.9 5.2 12.7 6.6 19.5 6.6 6.3 0 13-1.3 18.7-6.4 5.5-4.9 7.6-10.7 8.4-14 4.1-13.7 14.6-24.3 28.1-27.4 3.7-.8 6.6-3.7 7.5-7.3.8-3.7-.7-7.4-3.8-9.5-3.1-2.1-7.1-2.2-10.3-.3-21.4 12.8-35.3 34.7-38.6 59.6-23.6-8.7-42.2-28.5-49.6-52.7-1.7-5.6-7.6-8.8-13.2-7.1-5.6 1.7-8.8 7.6-7.1 13.2 10.3 33.8 36.1 60.4 68.8 71.7 1.7.6 3.5.9 5.3.9 3.8 0 7.4-1.9 9.6-5.3 17.5-27.7 45.7-30.9 50.4-30.9.6 0 1.1 0 1.7.1 40.7 2.4 73.2 36.2 73.2 77.2 0 19.8-7.5 38.5-21.1 52.9-3.2-2.2-6.6-4.2-10.1-5.9-5.3-2.5-11.6-.3-14.2 5-2.5 5.3-.3 11.6 5 14.2 7.5 3.6 14.1 8.7 19.6 15.1 16.4 19 16.4 47 0 66-1.2 1.4-2.4 2.7-3.7 3.9-2.6-1.8-5.3-3.5-8.2-4.9-5.3-2.5-11.6-.3-14.2 5-2.5 5.3-.3 11.6 5 14.2 7.5 3.6 14.1 8.7 19.6 15.1.3.3.6.7.9 1 .2.2.4.5.6.7 11.9 13.8 17.8 30.9 17.4 48z"/>
</svg> 